<?xml version="1.0" standalone="no"?>
<!DOCTYPE svg PUBLIC "-//W3C//DTD SVG 20010904//EN"
 "http://www.w3.org/TR/2001/REC-SVG-20010904/DTD/svg10.dtd">
<svg version="1.0" xmlns="http://www.w3.org/2000/svg"
 width="500.000000pt" height="500.000000pt" viewBox="0 0 500.000000 500.000000"
 preserveAspectRatio="xMidYMid meet">
<metadata>
Created by potrace 1.14, written by Peter Selinger 2001-2017
</metadata>
<g transform="translate(0.000000,500.000000) scale(0.100000,-0.100000)"
fill="#000000" stroke="none">
<path d="M2438 4364 c-83 -20 -135 -49 -198 -113 -62 -62 -107 -145 -117 -217
-4 -34 -16 -58 -40 -84 -33 -37 -33 -38 -33 -139 l0 -101 30 0 30 0 0 -129 0
-129 -217 -4 c-201 -4 -224 -6 -295 -30 -122 -41 -204 -92 -298 -187 -99 -99
-158 -202 -190 -327 -19 -74 -20 -115 -20 -1111 0 -1130 -3 -1073 59 -1126 47
-39 90 -47 255 -47 170 0 215 10 262 57 l33 33 3 -43 3 -42 350 0 350 0 5 210
c5 209 5 211 45 347 22 76 42 138 45 138 3 0 23 -62 45 -138 40 -136 40 -138
45 -347 l5 -210 350 0 350 0 3 42 3 43 33 -33 c47 -47 92 -57 262 -57 165 0
208 8 255 47 62 53 59 -4 59 1126 0 1171 4 1103 -82 1270 -54 105 -181 236
-281 292 -118 65 -203 87 -357 92 -98 3 -144 8 -167 20 -18 9 -33 19 -33 22 0
4 27 33 60 66 l60 59 -47 48 -47 48 72 0 72 0 0 68 0 67 -104 68 c-103 68
-104 68 -109 113 -13 116 -116 254 -230 307 -98 46 -180 55 -279 31z m239
-107 c29 -15 68 -41 87 -58 47 -41 94 -137 102 -209 l6 -59 95 -62 c51 -34 96
-66 99 -71 3 -4 -207 -8 -465 -8 l-471 0 0 38 c0 30 7 45 34 71 28 27 34 42
40 92 13 128 100 237 226 283 68 25 180 17 247 -17z m243 -572 l23 -25 -89 0
c-114 0 -160 -13 -205 -59 -42 -41 -61 -98 -53 -152 5 -29 1 -45 -15 -68 -48
-67 -66 -179 -42 -267 14 -52 62 -127 100 -155 17 -13 31 -26 31 -30 0 -25
-218 -39 -295 -18 -59 16 -113 57 -143 108 l-27 46 -3 323 -3 322 349 0 349 0
23 -25z m0 -140 c-20 -21 -32 -25 -82 -25 l-59 0 3 -42 3 -43 65 -5 c67 -6
131 -32 161 -66 16 -18 59 -97 59 -109 0 -3 -61 -5 -135 -5 l-135 0 0 -45 0
-45 135 0 c74 0 135 -2 135 -5 0 -19 -35 -84 -58 -108 -46 -49 -100 -71 -172
-71 -72 0 -109 15 -159 65 -50 50 -65 87 -65 159 0 72 17 114 66 166 29 31 29
33 14 62 -24 46 -20 80 13 113 29 28 32 29 132 29 l102 0 -23 -25z m-808 -334
c4 -143 5 -151 36 -214 38 -76 94 -128 172 -158 74 -28 287 -27 364 1 30 12
60 27 66 35 8 10 33 14 81 14 94 -1 158 22 223 82 94 86 128 215 88 333 l-20
58 107 -4 c83 -4 121 -11 176 -32 233 -90 377 -274 420 -538 l6 -37 -160 -81
c-89 -44 -163 -80 -166 -80 -3 0 -5 25 -5 55 l0 55 -38 0 -39 0 -7 -112 c-3
-62 -13 -138 -21 -168 -45 -170 -176 -329 -335 -408 -47 -23 -93 -42 -103 -42
-15 0 -17 -13 -17 -115 l0 -115 -440 0 -440 0 0 115 c0 102 -2 115 -17 115
-10 0 -56 19 -103 42 -159 79 -290 238 -335 408 -8 30 -18 106 -21 168 l-7
112 -39 0 -38 0 0 -55 c0 -30 -2 -55 -5 -55 -3 0 -77 36 -166 80 l-160 81 6
37 c33 206 126 361 276 463 135 91 203 108 455 108 l202 1 4 -149z m-771 -641
c88 -44 161 -86 163 -93 2 -6 9 -37 16 -67 6 -30 32 -98 57 -150 39 -80 59
-108 133 -182 l87 -88 -46 -43 c-83 -78 -178 -123 -286 -135 l-60 -7 -3 -42
c-3 -43 -3 -43 30 -43 18 1 52 5 75 9 38 7 43 6 49 -12 12 -37 6 -164 -10
-219 -21 -75 -86 -169 -146 -213 l-49 -36 13 -37 13 -37 137 -5 c136 -5 138
-5 162 -33 25 -30 31 -75 14 -108 -21 -37 -63 -49 -179 -49 -106 0 -110 -1
-130 -26 -15 -20 -21 -41 -21 -81 l0 -54 43 3 c40 3 42 5 47 38 l5 35 85 0 85
0 3 -66 c3 -64 2 -68 -28 -93 -31 -26 -33 -26 -196 -26 -94 0 -174 4 -185 10
-50 27 -49 0 -49 1000 0 511 2 930 5 930 3 0 77 -36 166 -80z m2489 -850 c0
-1000 1 -973 -49 -1000 -11 -6 -91 -10 -185 -10 -163 0 -165 0 -196 26 -30 25
-31 29 -28 93 l3 66 85 0 85 0 5 -30 c5 -27 9 -30 48 -33 l42 -3 0 49 c0 35
-6 57 -21 76 -20 25 -24 26 -130 26 -148 0 -189 22 -189 100 0 22 9 41 29 61
l29 29 151 0 c114 0 151 3 151 13 0 6 3 21 6 32 4 16 -7 29 -54 62 -110 78
-174 206 -174 348 0 107 3 114 55 104 23 -4 57 -8 75 -9 33 0 33 0 30 43 l-3
42 -60 7 c-108 12 -203 57 -286 135 l-46 43 87 88 c74 74 94 102 133 182 25
52 51 120 57 150 7 30 14 61 16 67 3 11 307 171 327 172 4 1 7 -418 7 -929z
m-1852 93 c3 -121 -62 -756 -78 -761 -54 -18 -120 -64 -150 -105 -19 -26 -37
-42 -38 -37 -2 6 10 26 26 44 63 72 67 167 9 233 -44 50 -98 73 -174 73 l-63
0 44 64 c63 92 87 164 93 271 3 50 1 108 -5 131 l-9 40 56 30 c31 16 85 56
121 90 l64 61 51 -23 50 -24 3 -87z m1333 -17 l56 -30 -9 -40 c-6 -23 -8 -81
-5 -131 6 -107 30 -179 93 -271 l44 -64 -63 0 c-186 -1 -280 -174 -165 -306
16 -18 28 -38 26 -44 -1 -5 -19 11 -38 37 -30 41 -96 87 -150 105 -15 5 -79
613 -80 755 l0 92 53 24 52 24 65 -61 c36 -34 90 -74 121 -90z m-851 -219 c0
-70 -15 -133 -111 -459 l-20 -68 -166 0 -166 0 6 48 c4 26 12 105 18 176 l13
130 61 60 c57 56 77 92 101 174 2 9 38 12 134 12 l130 0 0 -73z m344 61 c24
-82 44 -118 101 -174 l61 -60 13 -130 c6 -71 14 -150 18 -176 l6 -48 -166 0
-166 0 -20 68 c-96 326 -111 389 -111 459 l0 73 130 0 c96 0 132 -3 134 -12z
m-779 -691 c11 -5 32 -20 46 -33 l25 -24 28 29 c16 16 25 34 22 40 -5 8 21 11
83 11 l91 0 0 -130 0 -130 -265 0 -265 0 0 65 c0 103 43 167 125 185 33 8 79
2 110 -13z m829 12 c-3 -6 6 -24 22 -40 l28 -29 25 24 c40 36 70 48 122 48
100 0 159 -69 159 -187 l0 -65 -265 0 -265 0 0 130 0 130 91 0 c62 0 88 -3 83
-11z"/>
</g>
</svg>
